# xmcd CD database file
#
# Track frame offsets:
#	150
#	17824
#	42894
#	59781
#	77678
#	90299
#	110672
#	139173
#	156801
#	174243
#
# Disc length: 2751 seconds
#
# Revision: 0
# Processed by: cddbd v1.5.2PL0 Copyright (c) Steve Scherf et al.
# Submitted via: CDex 1.70beta2
#
DISCID=7a0abd0a
DTITLE=NILS KROGH - DISPOSITION
DYEAR=2007
DGENRE=Jazz
TTITLE0=Disposition
TTITLE1=Things We Do
TTITLE2=Lost Luggage
TTITLE3=All I Want
TTITLE4=Revoltution Revelation
TTITLE5=Time Is On My Side
TTITLE6=Beira Do Mar vs Swell Session
TTITLE7=The Mirage
TTITLE8=Resignation
TTITLE9=Things We Do (Jazzy Sport Crew Remix)
EXTD=YEAR: 2007
EXTT0=
EXTT1=
EXTT2=
EXTT3=
EXTT4=
EXTT5=
EXTT6=
EXTT7=
EXTT8=
EXTT9=
PLAYORDER=
